<svg width="42" height="34" viewBox="0 0 42 34" fill="none" xmlns="http://www.w3.org/2000/svg">
<path d="M34.738 12.6667H40.5506C40.6488 12.6664 40.7458 12.692 40.8314 12.7409C40.917 12.7899 40.9887 12.8605 41.0381 12.9456C41.0881 13.0307 41.114 13.1274 41.1146 13.226C41.1152 13.3246 41.0899 13.4216 41.0417 13.5073L30.5818 32.0658C30.4227 32.3485 30.1913 32.5838 29.9111 32.7477C29.631 32.9115 29.3128 32.998 28.9881 32.9983H24.5384C24.1678 32.9983 23.8057 32.8855 23.5008 32.6749C23.1953 32.4643 22.9616 32.1659 22.8302 31.8192L21.7408 28.9567L21.8174 29.0083C22.1656 29.2337 22.5561 29.3851 22.9652 29.4532C23.3749 29.5213 23.7937 29.5046 24.1962 29.4041C24.5986 29.3036 24.9758 29.1215 25.3054 28.8691C25.6344 28.6167 25.9085 28.2994 26.1098 27.9367L32.3863 16.6971H27.3787C27.2715 16.6993 27.166 16.6707 27.0744 16.6149C26.9828 16.559 26.9087 16.4781 26.8617 16.3818C26.8147 16.2854 26.7961 16.1776 26.8081 16.071C26.8202 15.9645 26.8629 15.8636 26.9304 15.7803L39.5149 0.129175C39.5787 0.060403 39.6643 0.0159868 39.7571 0.00355936C39.8505 -0.00886809 39.9445 0.0114701 40.024 0.0610772C40.1035 0.110684 40.1638 0.186462 40.1933 0.275389C40.2228 0.364315 40.221 0.460836 40.1873 0.548362L34.738 12.6667Z" fill="url(#paint0_linear_6_19)"/>
<path d="M14.3008 31.8751C14.3008 32.0223 14.2719 32.168 14.2153 32.304C14.1592 32.44 14.0767 32.5635 13.9725 32.6677C13.8688 32.7717 13.7447 32.8543 13.6091 32.9106C13.473 32.9669 13.3271 32.9959 13.1801 32.9959H8.40749C8.17612 32.9959 7.95077 32.9245 7.76158 32.7912C7.57238 32.658 7.42959 32.4695 7.35186 32.2517L6.78488 30.64L0.963238 14.1796C0.902382 14.0085 0.883702 13.8253 0.908405 13.6455C0.933712 13.4656 1.0012 13.2944 1.10604 13.1462C1.21088 12.9979 1.34946 12.877 1.51094 12.7935C1.67181 12.71 1.85076 12.6664 2.03212 12.6665H6.39263C6.67823 12.6663 6.9572 12.7543 7.19159 12.9183C7.42597 13.0824 7.60371 13.3145 7.70132 13.5833L13.9218 30.6198L14.2406 31.4895C14.2828 31.6135 14.3032 31.744 14.3008 31.8751Z" fill="#056960"/>
<path d="M19.1404 22.1422L15.5541 32.2789C15.4788 32.4905 15.3396 32.6736 15.1564 32.8032C14.9733 32.9328 14.7539 33.0026 14.5298 33.003H8.4075C8.17552 33.0025 7.94957 32.93 7.76038 32.7955C7.57118 32.661 7.42839 32.4711 7.35187 32.252L6.78247 30.6403C6.89454 30.8241 7.82906 32.2587 8.99255 30.6201L14.9733 14.2382C14.9733 14.2382 15.6909 13.8033 16.1301 14.2382L19.1404 22.1422Z" fill="#0D4943"/>
<path d="M27.228 25.9437L24.5227 30.7789C24.4118 30.9767 24.2473 31.1389 24.0479 31.2462C23.8478 31.3536 23.6219 31.4017 23.3959 31.3851C23.17 31.3683 22.9531 31.2874 22.7717 31.1519C22.5904 31.0163 22.4512 30.8317 22.3704 30.6198L19.1403 22.1419L16.2397 14.5203C16.177 14.3603 16.0601 14.2276 15.9089 14.1455C15.7583 14.0635 15.5829 14.0374 15.4148 14.072C15.2576 14.1049 15.1057 14.1623 14.9666 14.2424C15.1148 13.8276 15.3775 13.4632 15.7239 13.191C16.1469 12.852 16.6729 12.6671 17.2146 12.6665H21.2142C21.6293 12.6656 22.0342 12.7927 22.3747 13.0306C22.7145 13.2685 22.973 13.6056 23.1146 13.9958L27.2684 25.3699C27.3039 25.4627 27.3184 25.5622 27.3118 25.6612C27.3046 25.7603 27.2762 25.8567 27.228 25.9437Z" fill="#056960"/>
<defs>
<linearGradient id="paint0_linear_6_19" x1="30.5994" y1="28" x2="39.0994" y2="-3.29879e-07" gradientUnits="userSpaceOnUse">
<stop stop-color="#FE8551"/>
<stop offset="1" stop-color="#ED618E"/>
</linearGradient>
</defs>
</svg>
